<svg width="100" height="100" viewBox="0 0 100 100" fill="none" xmlns="http://www.w3.org/2000/svg">
<path d="M50 68.75C39.6447 68.75 31.25 60.3553 31.25 50C31.25 39.6447 39.6447 31.25 50 31.25C60.3553 31.25 68.75 39.6447 68.75 50C68.75 60.3553 60.3553 68.75 50 68.75ZM50 75C63.8071 75 75 63.8071 75 50C75 36.1929 63.8071 25 50 25C36.1929 25 25 36.1929 25 50C25 63.8071 36.1929 75 50 75Z" fill="#989898"/>
<path d="M50 0C51.7259 0 53.125 1.39911 53.125 3.125V15.625C53.125 17.3509 51.7259 18.75 50 18.75C48.2741 18.75 46.875 17.3509 46.875 15.625V3.125C46.875 1.39911 48.2741 0 50 0Z" fill="#989898"/>
<path d="M50 81.25C51.7259 81.25 53.125 82.6491 53.125 84.375V96.875C53.125 98.6009 51.7259 100 50 100C48.2741 100 46.875 98.6009 46.875 96.875V84.375C46.875 82.6491 48.2741 81.25 50 81.25Z" fill="#989898"/>
<path d="M100 50C100 51.7259 98.6009 53.125 96.875 53.125H84.375C82.6491 53.125 81.25 51.7259 81.25 50C81.25 48.2741 82.6491 46.875 84.375 46.875H96.875C98.6009 46.875 100 48.2741 100 50Z" fill="#989898"/>
<path d="M18.75 50C18.75 51.7259 17.3509 53.125 15.625 53.125H3.125C1.39911 53.125 -7.54411e-08 51.7259 0 50C7.54411e-08 48.2741 1.39911 46.875 3.125 46.875H15.625C17.3509 46.875 18.75 48.2741 18.75 50Z" fill="#989898"/>
<path d="M85.3553 14.6449C86.5757 15.8652 86.5757 17.8439 85.3553 19.0643L76.5165 27.9031C75.2961 29.1235 73.3175 29.1235 72.0971 27.9031C70.8767 26.6827 70.8767 24.7041 72.0971 23.4837L80.9359 14.6449C82.1563 13.4245 84.1349 13.4245 85.3553 14.6449Z" fill="#989898"/>
<path d="M27.9029 72.0973C29.1233 73.3177 29.1233 75.2963 27.9029 76.5167L19.0641 85.3555C17.8437 86.5759 15.865 86.5759 14.6446 85.3555C13.4243 84.1351 13.4243 82.1565 14.6446 80.9361L23.4835 72.0973C24.7039 70.8769 26.6825 70.8769 27.9029 72.0973Z" fill="#989898"/>
<path d="M85.3553 85.3556C84.1349 86.576 82.1563 86.576 80.9359 85.3556L72.0971 76.5168C70.8767 75.2964 70.8767 73.3177 72.0971 72.0974C73.3175 70.877 75.2961 70.877 76.5165 72.0974L85.3553 80.9362C86.5757 82.1566 86.5757 84.1352 85.3553 85.3556Z" fill="#989898"/>
<path d="M27.9029 27.9032C26.6825 29.1236 24.7039 29.1236 23.4835 27.9032L14.6447 19.0643C13.4243 17.844 13.4243 15.8653 14.6447 14.6449C15.865 13.4245 17.8437 13.4245 19.0641 14.6449L27.9029 23.4838C29.1233 24.7042 29.1233 26.6828 27.9029 27.9032Z" fill="#989898"/>
</svg>
