<svg width="100" height="94" viewBox="0 0 100 94" fill="none" xmlns="http://www.w3.org/2000/svg">
<path d="M43.75 43.75C55.8312 43.75 65.625 53.5438 65.625 65.625C65.625 65.7406 65.6241 65.8561 65.6223 65.9713C65.6072 66.9459 66.0478 67.8717 66.8136 68.4748C67.5794 69.0778 68.5827 69.289 69.5266 69.0458C70.2738 68.8533 71.0601 68.75 71.875 68.75C77.0527 68.75 81.25 72.9473 81.25 78.125C81.25 83.3027 77.0527 87.5 71.875 87.5L18.75 87.5C11.8464 87.5 6.25 81.9036 6.25 75C6.25 68.0964 11.8464 62.5 18.75 62.5C18.9609 62.5 19.1705 62.5052 19.3787 62.5155C20.8613 62.5886 22.1908 61.6087 22.5596 60.1708C24.9823 50.7268 33.5553 43.75 43.75 43.75ZM71.7035 62.5009C70.1494 48.4381 58.227 37.5 43.75 37.5C31.4776 37.5 21.0474 45.3578 17.2042 56.3128C7.57198 57.0989 0 65.1652 0 75C0 85.3553 8.39466 93.75 18.75 93.75L71.875 93.75C80.5044 93.75 87.5 86.7545 87.5 78.125C87.5 69.4955 80.5044 62.5 71.875 62.5C71.8178 62.5 71.7606 62.5003 71.7035 62.5009Z" fill="#989898"/>
<path d="M65.6249 3.125C65.6249 1.39911 64.2258 0 62.4999 0C60.774 0 59.3749 1.39911 59.3749 3.125V9.375C59.3749 11.1009 60.774 12.5 62.4999 12.5C64.2258 12.5 65.6249 11.1009 65.6249 9.375V3.125ZM89.0164 15.4028C90.2368 14.1824 90.2368 12.2038 89.0164 10.9834C87.796 9.76302 85.8174 9.76302 84.597 10.9834L80.1776 15.4028C78.9572 16.6232 78.9572 18.6019 80.1776 19.8222C81.398 21.0426 83.3766 21.0426 84.597 19.8222L89.0164 15.4028ZM40.4029 10.9834C39.1825 9.76303 37.2039 9.76303 35.9835 10.9834C34.7631 12.2038 34.7631 14.1825 35.9835 15.4028L40.4029 19.8223C41.6233 21.0426 43.6019 21.0426 44.8223 19.8223C46.0427 18.6019 46.0427 16.6232 44.8223 15.4028L40.4029 10.9834ZM51.2388 32.0679C53.2601 27.8852 57.5431 24.9999 62.5 24.9999C69.4036 24.9999 75 30.5964 75 37.4999C75 40.689 73.8057 43.5992 71.84 45.8076C73.0813 47.5642 74.162 49.4424 75.0608 51.4209C78.8614 47.9895 81.25 43.0236 81.25 37.4999C81.25 27.1446 72.8553 18.7499 62.5 18.7499C54.3301 18.7499 47.3806 23.9752 44.8112 31.2661C47.0121 31.3328 49.1609 31.6063 51.2388 32.0679ZM79.2656 57.53C83.0156 58.8759 86.2914 61.2169 88.7747 64.2346C88.8581 64.1668 88.9388 64.0941 89.0165 64.0164C90.2369 62.796 90.2369 60.8174 89.0165 59.597L84.5971 55.1776C83.3767 53.9572 81.3981 53.9572 80.1777 55.1776C79.5312 55.8241 79.2272 56.6834 79.2656 57.53ZM90.625 34.3749C88.8991 34.3749 87.5 35.774 87.5 37.4999C87.5 39.2258 88.8991 40.6249 90.625 40.6249H96.875C98.6009 40.6249 100 39.2258 100 37.4999C100 35.774 98.6009 34.3749 96.875 34.3749H90.625Z" fill="#989898"/>
</svg>
