<svg width="100" height="63" viewBox="0 0 100 63" fill="none" xmlns="http://www.w3.org/2000/svg">
<path d="M83.7833 25.1697C80.9524 10.82 68.3042 0 53.125 0C40.2502 0 29.2004 7.78413 24.4129 18.896C23.5795 18.7995 22.7325 18.75 21.875 18.75C9.79377 18.75 0 28.5438 0 40.625C0 52.7062 9.79377 62.5 21.875 62.5L81.25 62.5C91.6053 62.5 100 54.1053 100 43.75C100 34.2538 92.9405 26.4065 83.7833 25.1697ZM53.125 6.25C65.9914 6.25 76.5913 15.9722 77.9724 28.4692C78.148 30.059 79.4958 31.2595 81.0952 31.2509L81.25 31.25C81.2527 31.25 81.2553 31.25 81.258 31.25C88.1579 31.2543 93.75 36.8491 93.75 43.75C93.75 50.6536 88.1536 56.25 81.25 56.25L21.875 56.25C13.2455 56.25 6.25 49.2545 6.25 40.625C6.25 31.9955 13.2455 25 21.875 25C23.1833 25 24.4498 25.1601 25.658 25.4603C27.2444 25.8545 28.8667 24.9594 29.3791 23.4071C32.6697 13.438 42.062 6.25 53.125 6.25Z" fill="#989898"/>
</svg>
