<svg width="100" height="75" viewBox="0 0 100 75" fill="none" xmlns="http://www.w3.org/2000/svg">
<path d="M100 34.375C100 40.6772 96.271 46.1026 90.9021 48.5745C89.8117 46.6576 88.4399 44.9216 86.8429 43.4226C90.8251 42.3398 93.75 38.6951 93.75 34.375C93.75 29.1973 89.5527 25 84.375 25C83.5165 25 82.6896 25.1146 81.9066 25.3276C81.0316 25.5655 80.0963 25.4117 79.3436 24.9059C78.5909 24.4001 78.095 23.5923 77.9847 22.6921C76.8495 13.4269 68.948 6.25 59.375 6.25C53.8039 6.25 48.8003 8.67972 45.366 12.5373C44.8305 12.5125 44.2917 12.5 43.75 12.5C41.5767 12.5 39.4511 12.7016 37.3905 13.0869C41.6235 5.29192 49.8812 0 59.375 0C71.032 0 80.8221 7.97592 83.5917 18.7694C83.8513 18.7565 84.1125 18.75 84.375 18.75C93.0044 18.75 100 25.7456 100 34.375Z" fill="#989898"/>
<path d="M43.75 18.75C58.2271 18.75 70.1494 29.6881 71.7035 43.7509L71.875 43.75C80.5044 43.75 87.5 50.7455 87.5 59.375C87.5 68.0045 80.5044 75 71.875 75H18.75C8.39466 75 0 66.6053 0 56.25C0 46.4152 7.57198 38.3489 17.2042 37.5628C21.0474 26.6078 31.4776 18.75 43.75 18.75ZM65.625 46.875C65.625 34.7938 55.8312 25 43.75 25C33.5553 25 24.9823 31.9768 22.5596 41.4208C22.1908 42.8587 20.8613 43.8386 19.3787 43.7655C19.1705 43.7552 18.9609 43.75 18.75 43.75C11.8464 43.75 6.25 49.3464 6.25 56.25C6.25 63.1536 11.8464 68.75 18.75 68.75H71.875C77.0527 68.75 81.25 64.5527 81.25 59.375C81.25 54.1973 77.0527 50 71.875 50C71.0601 50 70.2738 50.1032 69.5266 50.2958C68.5827 50.539 67.5794 50.3278 66.8136 49.7248C66.0478 49.1217 65.6072 48.1959 65.6223 47.2213C65.6241 47.1061 65.625 46.9906 65.625 46.875Z" fill="#989898"/>
</svg>
