<svg width="100" height="100" viewBox="0 0 100 100" fill="none" xmlns="http://www.w3.org/2000/svg">
<path d="M26.0973 68.949C27.7133 69.555 28.532 71.3563 27.926 72.9723L18.551 97.9723C17.945 99.5883 16.1437 100.407 14.5277 99.801C12.9117 99.195 12.093 97.3937 12.699 95.7777L22.074 70.7777C22.68 69.1617 24.4813 68.343 26.0973 68.949ZM44.8473 68.949C46.4633 69.555 47.282 71.3563 46.676 72.9723L37.301 97.9723C36.695 99.5883 34.8937 100.407 33.2777 99.801C31.6617 99.195 30.843 97.3937 31.449 95.7777L40.824 70.7777C41.43 69.1617 43.2313 68.343 44.8473 68.949ZM63.5973 68.949C65.2133 69.555 66.032 71.3563 65.426 72.9723L56.051 97.9723C55.445 99.5883 53.6437 100.407 52.0277 99.801C50.4117 99.195 49.593 97.3937 50.199 95.7777L59.574 70.7777C60.18 69.1617 61.9813 68.343 63.5973 68.949ZM82.3473 68.949C83.9633 69.555 84.782 71.3563 84.176 72.9723L74.801 97.9723C74.195 99.5883 72.3937 100.407 70.7777 99.801C69.1617 99.195 68.343 97.3937 68.949 95.7777L78.324 70.7777C78.93 69.1617 80.7313 68.343 82.3473 68.949Z" fill="#989898"/>
<path d="M83.7833 25.1697C80.9524 10.82 68.3042 0 53.125 0C40.2502 0 29.2004 7.78413 24.4129 18.896C23.5795 18.7995 22.7325 18.75 21.875 18.75C9.79377 18.75 0 28.5438 0 40.625C0 52.7062 9.79377 62.5 21.875 62.5L81.25 62.5C91.6053 62.5 100 54.1053 100 43.75C100 34.2538 92.9405 26.4065 83.7833 25.1697ZM53.125 6.25C65.9914 6.25 76.5913 15.9722 77.9724 28.4692C78.148 30.059 79.4958 31.2595 81.0952 31.2509L81.25 31.25L81.258 31.25C88.1579 31.2543 93.75 36.8491 93.75 43.75C93.75 50.6536 88.1536 56.25 81.25 56.25L21.875 56.25C13.2455 56.25 6.25 49.2545 6.25 40.625C6.25 31.9955 13.2455 25 21.875 25C23.1833 25 24.4498 25.1601 25.658 25.4603C27.2444 25.8545 28.8667 24.9594 29.3791 23.4071C32.6697 13.438 42.062 6.25 53.125 6.25Z" fill="#989898"/>
</svg>
