<svg width="100" height="94" viewBox="0 0 100 94" fill="none" xmlns="http://www.w3.org/2000/svg">
<path d="M25.9882 68.9103C27.6255 69.4561 28.5104 71.2259 27.9646 72.8632L24.8396 82.2382C24.2939 83.8755 22.5241 84.7604 20.8868 84.2146C19.2495 83.6688 18.3646 81.8991 18.9104 80.2618L22.0354 70.8868C22.5811 69.2494 24.3509 68.3646 25.9882 68.9103ZM63.4882 68.9103C65.1255 69.4561 66.0104 71.2259 65.4646 72.8632L62.3396 82.2382C61.7939 83.8755 60.0241 84.7604 58.3868 84.2146C56.7495 83.6688 55.8646 81.8991 56.4104 80.2618L59.5354 70.8868C60.0811 69.2494 61.8509 68.3646 63.4882 68.9103ZM41.6132 78.2853C43.2505 78.8311 44.1354 80.6009 43.5896 82.2382L40.4646 91.6132C39.9189 93.2505 38.1491 94.1354 36.5118 93.5896C34.8745 93.0438 33.9896 91.2741 34.5354 89.6368L37.6604 80.2618C38.2061 78.6244 39.9759 77.7396 41.6132 78.2853ZM79.1132 78.2853C80.7505 78.8311 81.6354 80.6009 81.0896 82.2382L77.9646 91.6132C77.4189 93.2505 75.6491 94.1354 74.0118 93.5896C72.3745 93.0438 71.4896 91.2741 72.0354 89.6368L75.1604 80.2618C75.7061 78.6244 77.4759 77.7396 79.1132 78.2853Z" fill="#989898"/>
<path d="M83.7833 25.1697C80.9524 10.82 68.3042 0 53.125 0C40.2502 0 29.2004 7.78412 24.4129 18.896C23.5795 18.7995 22.7325 18.75 21.875 18.75C9.79377 18.75 0 28.5438 0 40.625C0 52.7062 9.79377 62.5 21.875 62.5L81.25 62.5C91.6053 62.5 100 54.1053 100 43.75C100 34.2538 92.9405 26.4065 83.7833 25.1697ZM53.125 6.25C65.9914 6.25 76.5913 15.9722 77.9724 28.4692C78.148 30.059 79.4958 31.2595 81.0952 31.2509L81.25 31.25L81.258 31.25C88.1579 31.2543 93.75 36.8491 93.75 43.75C93.75 50.6535 88.1536 56.25 81.25 56.25L21.875 56.25C13.2455 56.25 6.25 49.2544 6.25 40.625C6.25 31.9955 13.2455 25 21.875 25C23.1833 25 24.4498 25.1601 25.658 25.4603C27.2444 25.8545 28.8667 24.9594 29.3791 23.4071C32.6697 13.438 42.062 6.25 53.125 6.25Z" fill="#989898"/>
</svg>
