<svg width="100" height="99" viewBox="0 0 100 99" fill="none" xmlns="http://www.w3.org/2000/svg">
<path d="M83.7833 25.1697C80.9524 10.82 68.3042 0 53.125 0C40.2502 0 29.2004 7.78413 24.4129 18.896C23.5795 18.7995 22.7325 18.75 21.875 18.75C9.79377 18.75 0 28.5438 0 40.625C0 52.7062 9.79377 62.5 21.875 62.5L81.25 62.5C91.6053 62.5 100 54.1053 100 43.75C100 34.2538 92.9405 26.4065 83.7833 25.1697ZM53.125 6.25C65.9914 6.25 76.5913 15.9722 77.9724 28.4692C78.148 30.059 79.4958 31.2595 81.0952 31.2509L81.25 31.25L81.258 31.25C88.1579 31.2543 93.75 36.8491 93.75 43.75C93.75 50.6536 88.1536 56.25 81.25 56.25L21.875 56.25C13.2455 56.25 6.25 49.2545 6.25 40.625C6.25 31.9955 13.2455 25 21.875 25C23.1833 25 24.4498 25.1601 25.658 25.4603C27.2444 25.8545 28.8667 24.9594 29.3791 23.4071C32.6697 13.438 42.062 6.25 53.125 6.25Z" fill="#989898"/>
<path d="M16.4062 70.3125C17.2691 70.3125 17.9687 71.0121 17.9687 71.875L17.9687 75.4326L21.0998 73.6434C21.849 73.2152 22.8035 73.4755 23.2316 74.2248C23.6598 74.974 23.3995 75.9285 22.6502 76.3566L19.5556 78.125L22.6502 79.8934C23.3994 80.3215 23.6597 81.276 23.2316 82.0252C22.8034 82.7745 21.849 83.0348 21.0997 82.6066L17.9687 80.8174V84.375C17.9687 85.2379 17.2691 85.9375 16.4062 85.9375C15.5432 85.9375 14.8437 85.2379 14.8437 84.375V80.8175L11.7128 82.6066C10.9635 83.0348 10.0091 82.7745 9.58091 82.0252C9.15277 81.276 9.41308 80.3215 10.1623 79.8934L13.2569 78.125L10.1623 76.3566C9.41303 75.9285 9.15273 74.974 9.58087 74.2248C10.009 73.4755 10.9635 73.2152 11.7127 73.6434L14.8437 75.4325V71.875C14.8437 71.0121 15.5432 70.3125 16.4062 70.3125Z" fill="#989898"/>
<path d="M33.5937 82.8125C34.4566 82.8125 35.1562 83.5121 35.1562 84.375L35.1562 87.9326L38.2873 86.1434C39.0365 85.7152 39.991 85.9755 40.4191 86.7248C40.8473 87.474 40.587 88.4285 39.8377 88.8566L36.7431 90.625L39.8377 92.3934C40.5869 92.8215 40.8472 93.776 40.4191 94.5252C39.9909 95.2745 39.0365 95.5348 38.2872 95.1066L35.1562 93.3174V96.875C35.1562 97.7379 34.4566 98.4375 33.5937 98.4375C32.7307 98.4375 32.0312 97.7379 32.0312 96.875V93.3175L28.9003 95.1066C28.151 95.5348 27.1966 95.2745 26.7684 94.5252C26.3403 93.776 26.6006 92.8215 27.3498 92.3934L30.4444 90.625L27.3498 88.8566C26.6005 88.4285 26.3402 87.474 26.7684 86.7248C27.1965 85.9755 28.151 85.7152 28.9002 86.1434L32.0312 87.9325L32.0312 84.375C32.0312 83.5121 32.7307 82.8125 33.5937 82.8125Z" fill="#989898"/>
<path d="M67.9687 82.8125C68.8316 82.8125 69.5312 83.5121 69.5312 84.375V87.9326L72.6623 86.1434C73.4115 85.7152 74.366 85.9755 74.7941 86.7248C75.2223 87.474 74.962 88.4285 74.2127 88.8566L71.1181 90.625L74.2127 92.3934C74.9619 92.8215 75.2222 93.776 74.7941 94.5252C74.3659 95.2745 73.4115 95.5348 72.6622 95.1066L69.5312 93.3174V96.875C69.5312 97.7379 68.8316 98.4375 67.9687 98.4375C67.1057 98.4375 66.4062 97.7379 66.4062 96.875V93.3175L63.2753 95.1066C62.526 95.5348 61.5716 95.2745 61.1434 94.5252C60.7153 93.776 60.9756 92.8215 61.7248 92.3934L64.8194 90.625L61.7248 88.8566C60.9755 88.4285 60.7152 87.474 61.1434 86.7248C61.5715 85.9755 62.526 85.7152 63.2752 86.1434L66.4062 87.9325V84.375C66.4062 83.5121 67.1057 82.8125 67.9687 82.8125Z" fill="#989898"/>
<path d="M50.7812 70.3125C51.6441 70.3125 52.3437 71.0121 52.3437 71.875V75.4326L55.4748 73.6434C56.224 73.2152 57.1785 73.4755 57.6066 74.2248C58.0348 74.974 57.7745 75.9285 57.0252 76.3566L53.9306 78.125L57.0252 79.8934C57.7744 80.3215 58.0347 81.276 57.6066 82.0252C57.1784 82.7745 56.224 83.0348 55.4747 82.6066L52.3437 80.8174V84.375C52.3437 85.2379 51.6441 85.9375 50.7812 85.9375C49.9182 85.9375 49.2187 85.2379 49.2187 84.375V80.8175L46.0878 82.6066C45.3385 83.0348 44.3841 82.7745 43.9559 82.0252C43.5278 81.276 43.7881 80.3215 44.5373 79.8934L47.6319 78.125L44.5373 76.3566C43.788 75.9285 43.5277 74.974 43.9559 74.2248C44.384 73.4755 45.3385 73.2152 46.0877 73.6434L49.2187 75.4325V71.875C49.2187 71.0121 49.9182 70.3125 50.7812 70.3125Z" fill="#989898"/>
<path d="M85.1562 70.3125C86.0191 70.3125 86.7187 71.0121 86.7187 71.875V75.4326L89.8498 73.6434C90.599 73.2152 91.5535 73.4755 91.9816 74.2248C92.4098 74.974 92.1495 75.9285 91.4002 76.3566L88.3056 78.125L91.4002 79.8934C92.1494 80.3215 92.4097 81.276 91.9816 82.0252C91.5534 82.7745 90.599 83.0348 89.8497 82.6066L86.7187 80.8174V84.375C86.7187 85.2379 86.0191 85.9375 85.1562 85.9375C84.2932 85.9375 83.5937 85.2379 83.5937 84.375V80.8175L80.4628 82.6066C79.7135 83.0348 78.7591 82.7745 78.3309 82.0252C77.9028 81.276 78.1631 80.3215 78.9123 79.8934L82.0069 78.125L78.9123 76.3566C78.163 75.9285 77.9027 74.974 78.3309 74.2248C78.759 73.4755 79.7135 73.2152 80.4627 73.6434L83.5937 75.4325V71.875C83.5937 71.0121 84.2932 70.3125 85.1562 70.3125Z" fill="#989898"/>
</svg>
