<svg width="100" height="75" viewBox="0 0 100 75" fill="none" xmlns="http://www.w3.org/2000/svg">
<path d="M53.125 6.25C42.062 6.25 32.6697 13.438 29.3791 23.4071C28.8381 25.046 27.0709 25.936 25.432 25.3951C23.7931 24.8541 22.9031 23.0869 23.444 21.448C27.5547 8.99439 39.2854 0 53.125 0C68.3042 0 80.9524 10.8201 83.7833 25.1697C92.9405 26.4065 100 34.2538 100 43.75C100 54.1053 91.6053 62.5 81.25 62.5L28.125 62.5C26.3991 62.5 25 61.1009 25 59.375C25 57.6491 26.3991 56.25 28.125 56.25L81.25 56.25C88.1536 56.25 93.75 50.6536 93.75 43.75C93.75 36.8491 88.1579 31.2543 81.258 31.25C81.2553 31.25 81.2527 31.25 81.25 31.25L81.0952 31.2509C79.4958 31.2595 78.148 30.059 77.9724 28.4692C76.5913 15.9722 65.9914 6.25 53.125 6.25ZM0 34.375C0 32.6491 1.39911 31.25 3.125 31.25L34.375 31.25C36.1009 31.25 37.5 32.6491 37.5 34.375C37.5 36.1009 36.1009 37.5 34.375 37.5L3.125 37.5C1.39911 37.5 0 36.1009 0 34.375ZM12.5 46.875C12.5 45.1491 13.8991 43.75 15.625 43.75L71.875 43.75C73.6009 43.75 75 45.1491 75 46.875C75 48.6009 73.6009 50 71.875 50L15.625 50C13.8991 50 12.5 48.6009 12.5 46.875ZM0 71.875C0 70.1491 1.39911 68.75 3.125 68.75L59.375 68.75C61.1009 68.75 62.5 70.1491 62.5 71.875C62.5 73.6009 61.1009 75 59.375 75L3.125 75C1.39911 75 0 73.6009 0 71.875Z" fill="#989898"/>
</svg>
